<?xml version="1.0" encoding="iso-8859-1"?>
<!-- Generator: Adobe Illustrator 19.0.0, SVG Export Plug-In . SVG Version: 6.00 Build 0)  -->
<svg version="1.1" id="Capa_1" xmlns="http://www.w3.org/2000/svg" xmlns:xlink="http://www.w3.org/1999/xlink" x="0px" y="0px"
	 viewBox="0 0 348.554 348.554" style="enable-background:new 0 0 348.554 348.554;" xml:space="preserve">
<g>
	<g>
		<g>
			<path style="fill:#231F20;" d="M79.166,209.354h-50c-3.6,0-6.8,3.2-6.8,6.8v124c0,3.6,3.2,6.8,6.8,6.8h50c3.6,0,6.8-3.2,6.8-6.8
				v-124C85.966,212.154,83.166,209.354,79.166,209.354z M72.366,333.354h-36.4v-110.4h36.4V333.354z"/>
			<path style="fill:#231F20;" d="M161.166,163.354h-50.4c-3.6,0-6.8,3.2-6.8,6.8v171.2c0,3.6,3.2,6.8,6.8,6.8h50
				c3.6,0,6.8-3.2,6.8-6.8v-171.2C167.966,166.554,164.766,163.354,161.166,163.354z M154.366,334.554h-36.4v-157.6h36.4V334.554z"
				/>
			<path style="fill:#231F20;" d="M242.766,119.354h-50.4c-3.6,0-6.8,3.2-6.8,6.8v215.6c0,3.6,3.2,6.8,6.8,6.8h50
				c3.6,0,6.8-3.2,6.8-6.8v-215.6C249.566,122.154,246.366,119.354,242.766,119.354z M235.966,334.554h-36.4v-201.6h36.4V334.554z"
				/>
			<path style="fill:#231F20;" d="M324.366,83.754h-50c-3.6,0-6.8,3.2-6.8,6.8v250.8c0,3.6,3.2,6.8,6.8,6.8h50
				c3.6,0,6.8-3.2,6.8-6.8v-250.8C331.166,86.954,327.966,83.754,324.366,83.754z M317.566,334.554h-36.4v-237.2h36.4V334.554z"/>
			<path style="fill:#231F20;" d="M27.966,197.754l285.6-168.8l-6.8,25.2c-0.8,3.6,1.2,7.2,4.8,8.4c0.4,0,1.2,0.4,1.6,0.4
				c2.8,0,5.6-2,6.4-5.2l11.2-40.8c0.4-0.8,0.4-1.6,0-2.8c0-0.4,0-0.4-0.4-0.8c0-0.8-0.4-1.2-0.8-2c0-0.4-0.4-0.4-0.8-0.8
				c-0.4-0.4-0.8-0.8-1.2-1.2c-0.4,0-0.4-0.4-0.8-0.4c-0.4-0.4-1.2-0.4-1.6-0.8l-40-8c-3.6-0.8-7.2,1.6-8,5.2
				c-0.8,3.6,1.6,7.2,5.2,8l22.4,4.4l-284,168.4c-3.2,2-4.4,6-2.4,9.2c1.2,2,3.6,3.2,6,3.2
				C25.566,198.954,26.766,198.554,27.966,197.754z"/>
		</g>
	</g>
</g>
<g>
</g>
<g>
</g>
<g>
</g>
<g>
</g>
<g>
</g>
<g>
</g>
<g>
</g>
<g>
</g>
<g>
</g>
<g>
</g>
<g>
</g>
<g>
</g>
<g>
</g>
<g>
</g>
<g>
</g>
</svg>
