<svg height="647pt" viewBox="0 0 647 647.49756" width="647pt" xmlns="http://www.w3.org/2000/svg"><path d="m642.867188.589844c-2.914063-1.199219-6.265626-.5351565-8.496094 1.6875l-631.859375 631.917968c-2.214844 2.238282-2.871094 5.578126-1.667969 8.484376 1.191406 2.898437 4.023438 4.804687 7.160156 4.816406h631.859375c4.3125 0 7.808594-3.488282 7.808594-7.800782v-631.859374c.019531-3.171876-1.886719-6.027344-4.804687-7.246094zm-616.003907 631.296875 605.191407-605.191407v59.765626h-44.148438c-4.308594 0-7.808594 3.488281-7.808594 7.800781s3.5 7.808593 7.808594 7.808593h44.148438v40.964844h-18.171876c-4.3125 0-7.804687 3.492188-7.804687 7.804688s3.492187 7.808594 7.804687 7.808594h18.171876v40.902343h-18.171876c-4.3125 0-7.804687 3.5-7.804687 7.808594s3.492187 7.800781 7.804687 7.800781h18.171876v40.972656h-44.148438c-4.308594 0-7.808594 3.496094-7.808594 7.808594 0 4.308594 3.5 7.800782 7.808594 7.800782h44.148438v40.964843h-18.171876c-4.3125 0-7.804687 3.496094-7.804687 7.808594s3.492187 7.804687 7.804687 7.804687h18.171876v40.90625h-18.171876c-4.3125 0-7.804687 3.496094-7.804687 7.808594 0 4.304688 3.492187 7.808594 7.804687 7.808594h18.171876v40.960938h-44.148438c-4.308594 0-7.808594 3.496093-7.808594 7.808593 0 4.308594 3.5 7.804688 7.808594 7.804688h44.148438v40.964843h-18.171876c-4.3125 0-7.804687 3.5-7.804687 7.804688 0 4.3125 3.492187 7.808594 7.804687 7.808594h18.171876v40.964844h-18.171876c-4.3125 0-7.804687 3.496093-7.804687 7.808593s3.492187 7.808594 7.804687 7.808594h18.171876v40.960937h-44.148438c-4.308594 0-7.808594 3.496094-7.808594 7.808594s3.5 7.808594 7.808594 7.808594h44.148438v20.792969zm0 0"/><path d="m551.125 234.085938c-2.910156-1.199219-6.265625-.535157-8.496094 1.691406l-305.5625 305.5c-2.425781 2.226562-3.203125 5.730468-1.929687 8.773437 1.277343 3.039063 4.328125 4.945313 7.613281 4.777344h305.378906c4.3125 0 7.808594-3.496094 7.808594-7.808594v-305.75c-.015625-3.144531-1.910156-5.976562-4.8125-7.183593zm-10.800781 304.875h-278.839844l278.839844-278.835938zm0 0"/><path d="m103.800781 438.484375c16.992188.054687 33.289063-6.6875 45.277344-18.734375l248.175781-248.238281s0 0 0-.4375c.613282-.433594 1.15625-.960938 1.617188-1.558594.167968-.28125.3125-.574219.441406-.875v-.375l34.34375-113.84375c.855469-2.773437.097656-5.792969-1.953125-7.835937-2.0625-2.046876-5.082031-2.78125-7.851563-1.910157l-33.597656 10.117188-80.246094 24.296875c-.9375.449218-1.84375.996094-2.6875 1.621094l-206.332031 206.019531-28.101562 28.105469-14.359375 14.425781c-18.339844 18.285156-23.832032 45.835937-13.910156 69.761719 9.917968 23.929687 33.285156 39.503906 59.183593 39.460937zm2.753907-135.144531 34.21875 34.226562 34.222656 34.21875-17.113282 17.109375-68.691406-68.691406zm281.332031-231.496094c4.058593 7.917969 10.660156 14.25 18.730469 17.984375l-18.730469 61.449219-60.886719-61.074219zm-75.628907 25.734375 28.730469 28.71875-194.722656 194.660156-28.410156-28.417969zm-126.269531 263.15625-28.730469-28.722656 194.78125-194.722657 28.722657 28.730469zm225.375-286.203125c-3.160156-1.808594-5.875-4.308594-7.929687-7.308594l11.113281-3.371094zm-341.785156 265.78125 8.804687-8.800781 68.695313 68.691406-8.804687 8.800781c-18.96875 18.972656-49.722657 18.972656-68.695313 0-18.964844-18.964844-18.964844-49.722656 0-68.691406zm0 0"/></svg>