<?xml version="1.0" encoding="iso-8859-1"?>
<!-- Generator: Adobe Illustrator 19.0.0, SVG Export Plug-In . SVG Version: 6.00 Build 0)  -->
<svg version="1.1" id="Capa_1" xmlns="http://www.w3.org/2000/svg" xmlns:xlink="http://www.w3.org/1999/xlink" x="0px" y="0px"
	 viewBox="0 0 387.2 387.2" style="enable-background:new 0 0 387.2 387.2;" xml:space="preserve">
<g>
	<g>
		<path d="M68.8,55.6H16c-8.8,0-16,7.2-16,16v243.2c0,8.8,7.2,16,16,16h52.8c8.8,0,16-7.2,16-16V71.6C84.8,62.8,77.6,55.6,68.8,55.6
			z M68.8,314.8H16V71.6h52.8V314.8z"/>
	</g>
</g>
<g>
	<g>
		<path d="M169.6,90.8h-52.8c-8.8,0-16,6.4-16,15.2v210.4c0,8,7.2,15.2,16,15.2h52.8c8.8,0,16-6.4,16-15.2V106
			C185.6,97.2,178.4,90.8,169.6,90.8z M169.6,314.8h-52.8v-208h52.8V314.8z"/>
	</g>
</g>
<g>
	<g>
		<path d="M270.4,122.8h-52.8V122c-8.8,0-16,6.4-16,13.6v180.8c0,8,7.2,13.6,16,13.6h52.8c8.8,0,16-6.4,16-13.6v-180
			C286.4,128.4,279.2,122.8,270.4,122.8z M270.4,314.8h-52.8V138h52.8V314.8z"/>
	</g>
</g>
<g>
	<g>
		<path d="M371.2,149.2h-52.8c-8.8,0-16,5.6-16,12.8v155.2c0,7.2,7.2,12.8,16,12.8h52.8c8.8,0,16-5.6,16-12.8V162
			C387.2,154.8,380,149.2,371.2,149.2z M371.2,314.8h-52.8V165.2h52.8V314.8z"/>
	</g>
</g>
<g>
</g>
<g>
</g>
<g>
</g>
<g>
</g>
<g>
</g>
<g>
</g>
<g>
</g>
<g>
</g>
<g>
</g>
<g>
</g>
<g>
</g>
<g>
</g>
<g>
</g>
<g>
</g>
<g>
</g>
</svg>
