<?xml version="1.0" encoding="iso-8859-1"?>
<!-- Generator: Adobe Illustrator 19.0.0, SVG Export Plug-In . SVG Version: 6.00 Build 0)  -->
<svg version="1.1" id="Capa_1" xmlns="http://www.w3.org/2000/svg" xmlns:xlink="http://www.w3.org/1999/xlink" x="0px" y="0px"
	 viewBox="0 0 398.4 398.4" style="enable-background:new 0 0 398.4 398.4;" xml:space="preserve">
<g>
	<g>
		<path d="M350.4,340.8c-12.8,0-24,8.8-27.2,20.8h-52.8c38.4-18.4,64.8-48.8,64.8-84.8h35.2c4.8,0,8-3.2,8-8s-3.2-8-8-8h-36
			c-3.2-17.6-12.8-32.8-27.2-46.4L342.4,104h24c4.8,0,8-3.2,8-8s-3.2-8-8-8h-59.2c-4.8,0-8,3.2-8,8s3.2,8,8,8h18.4l-32,99.2
			c-26.4-18.4-62.4-29.6-101.6-29.6c-36.8,0-69.6,9.6-95.2,25.6l76-143.2c0-0.8,0-0.8,0.8-1.6c0-0.8,0-0.8,0-1.6V52
			c0-0.8,0-0.8,0-1.6s-0.8-0.8-0.8-1.6c0-0.8-0.8-0.8-0.8-1.6s-0.8-0.8-1.6-0.8l-0.8-0.8c-0.8,0-0.8,0-1.6-0.8c-0.8,0-0.8,0-1.6,0
			c-10.4,0-18.4-6.4-18.4-14.4S156.8,16,166.4,16H192c4.8,0,8-3.2,8-8s-3.2-8-8-8h-25.6C147.2,0,132,13.6,132,30.4
			c0,12.8,9.6,24,22.4,28L59.2,236.8c0,0,0,0,0,0.8c-7.2,12-10.4,24.8-10.4,38.4c0,36,26.4,68,67.2,85.6H75.2
			c-3.2-12-14.4-20.8-27.2-20.8c-16,0-28.8,12.8-28.8,28.8S32,398.4,48,398.4c12.8,0,24-8.8,27.2-20.8h248
			c3.2,12,14.4,20.8,27.2,20.8c16,0,28.8-12.8,28.8-28.8S366.4,340.8,350.4,340.8z M47.2,382.4c-7.2,0-12.8-5.6-12.8-12.8
			c0-7.2,5.6-12.8,12.8-12.8S60,362.4,60,369.6C59.2,376.8,53.6,382.4,47.2,382.4z M64,276c0-47.2,57.6-85.6,128-85.6
			c40.8,0,76.8,12.8,100.8,32.8C309.6,237.6,320,256,320,276c0,47.2-57.6,85.6-128,85.6C121.6,361.6,64,323.2,64,276z M349.6,382.4
			c-7.2,0-12.8-5.6-12.8-12.8c0-7.2,5.6-12.8,12.8-12.8s12.8,5.6,12.8,12.8C362.4,376.8,356.8,382.4,349.6,382.4z"/>
	</g>
</g>
<g>
	<g>
		<path d="M242.4,217.6c-25.6,0-47.2,19.2-51.2,43.2h-36.8c-4.8,0-8,3.2-8,8s3.2,8,8,8h36.8c4,24.8,24.8,43.2,51.2,43.2
			c28.8,0,51.2-23.2,51.2-51.2S270.4,217.6,242.4,217.6z M242.4,304.8c-16.8,0-31.2-12-34.4-27.2h34.4c4.8,0,8-3.2,8-8s-3.2-8-8-8
			H208c4-16,17.6-27.2,34.4-27.2c20,0,35.2,16,35.2,35.2S261.6,304.8,242.4,304.8z"/>
	</g>
</g>
<g>
</g>
<g>
</g>
<g>
</g>
<g>
</g>
<g>
</g>
<g>
</g>
<g>
</g>
<g>
</g>
<g>
</g>
<g>
</g>
<g>
</g>
<g>
</g>
<g>
</g>
<g>
</g>
<g>
</g>
</svg>
