<svg xmlns="http://www.w3.org/2000/svg" height="512pt" version="1.1" viewBox="-3 0 512 512" width="512pt">
<g id="surface1">
<path d="M 330.253906 241 C 269.683594 241 216.183594 271.804688 184.589844 318.578125 L 184.589844 215.835938 C 184.589844 201.957031 195.878906 190.667969 209.753906 190.667969 C 240.175781 190.667969 264.921875 165.917969 264.921875 135.5 L 264.921875 55.167969 C 264.921875 24.746094 240.175781 0 209.753906 0 L 129.421875 0 C 115.191406 0 100.984375 5.394531 89.417969 15.195312 C 77.855469 24.992188 70.195312 38.117188 67.855469 52.15625 L 0.730469 454.910156 C -1.730469 469.65625 2.09375 484.289062 11.214844 495.058594 C 20.335938 505.824219 34.140625 512 49.089844 512 L 450.753906 512 C 481.175781 512 505.921875 487.253906 505.921875 456.832031 L 505.921875 416.664062 C 505.921875 319.804688 427.117188 241 330.253906 241 Z M 475.921875 456.832031 C 475.921875 470.710938 464.632812 482 450.753906 482 L 49.089844 482 C 42.886719 482 37.566406 479.75 34.105469 475.664062 C 30.644531 471.582031 29.300781 465.960938 30.320312 459.84375 L 97.449219 57.085938 C 99.894531 42.402344 114.535156 30 129.421875 30 L 209.753906 30 C 223.632812 30 234.921875 41.289062 234.921875 55.167969 L 234.921875 80.335938 L 184.589844 80.335938 L 184.589844 79.269531 C 184.589844 70.984375 177.871094 64.269531 169.589844 64.269531 C 161.304688 64.269531 154.589844 70.984375 154.589844 79.269531 L 154.589844 95.335938 C 154.589844 103.617188 161.304688 110.335938 169.589844 110.335938 L 234.921875 110.335938 L 234.921875 135.5 C 234.921875 149.378906 223.632812 160.667969 209.753906 160.667969 C 179.335938 160.667969 154.589844 185.414062 154.589844 215.835938 L 154.589844 416.664062 C 154.589844 424.949219 161.304688 431.664062 169.589844 431.664062 C 177.871094 431.664062 184.589844 424.949219 184.589844 416.664062 C 184.589844 336.347656 249.933594 271 330.253906 271 C 410.574219 271 475.921875 336.347656 475.921875 416.664062 Z M 475.921875 456.832031 " style=" stroke:none;fill-rule:nonzero;fill:rgb(0%,0%,0%);fill-opacity:1;" />
</g>
</svg>