<?xml version="1.0" encoding="iso-8859-1"?>
<!-- Generator: Adobe Illustrator 19.0.0, SVG Export Plug-In . SVG Version: 6.00 Build 0)  -->
<svg version="1.1" id="file-1" xmlns="http://www.w3.org/2000/svg" xmlns:xlink="http://www.w3.org/1999/xlink" x="0px" y="0px"
	 viewBox="0 0 426.843 426.843" style="enable-background:new 0 0 426.843 426.843;" xml:space="preserve">
<g>
	<g>
		<path d="M293.825,152.48H91.505c-4.418,0-8,3.582-8,8s3.582,8,8,8h202.32c4.418,0,8-3.582,8-8S298.244,152.48,293.825,152.48z"/>
	</g>
</g>
<g>
	<g>
		<path d="M293.825,195.68H91.505c-4.418,0-8,3.582-8,8s3.582,8,8,8h202.32c4.418,0,8-3.582,8-8S298.244,195.68,293.825,195.68z"/>
	</g>
</g>
<g>
	<g>
		<path d="M293.825,238.8H91.505c-4.418,0-8,3.582-8,8s3.582,8,8,8h202.32c4.418,0,8-3.582,8-8S298.244,238.8,293.825,238.8z"/>
	</g>
</g>
<g>
	<g>
		<path d="M235.345,282h-144c-4.418,0-8,3.582-8,8s3.582,8,8,8h144c4.418,0,8-3.582,8-8S239.763,282,235.345,282z"/>
	</g>
</g>
<g>
	<g>
		<path d="M215.905,325.04h-124.4c-4.418,0-8,3.582-8,8s3.582,8,8,8h124.4c4.418,0,8-3.582,8-8S220.323,325.04,215.905,325.04z"/>
	</g>
</g>
<g>
	<g>
		<path d="M389.851,327.327c-6.784-17.049-19.769-30.899-36.346-38.767V106c0,0,0,0,0-0.48c-0.041-0.708-0.175-1.407-0.4-2.08v-0.72
			c-0.392-0.862-0.934-1.647-1.6-2.32L253.105,2c-0.673-0.666-1.458-1.208-2.32-1.6h-0.72c-0.673-0.225-1.372-0.359-2.08-0.4H46.865
			c-8.183-0.002-14.866,6.539-15.04,14.72v351.52c0.131,8.212,6.826,14.801,15.04,14.8h208
			c14.833,37.275,57.074,55.469,94.35,40.636C386.49,406.844,404.684,364.602,389.851,327.327z M255.185,26.96l35.52,35.52
			L326.225,98h-71.04V26.96z M250.953,336.515c-2.196,9.354-2.498,19.052-0.888,28.525H47.825V15.6h191.36v83.36
			c0,8.306,6.734,15.04,15.04,15.04h83.28v168.88C298.794,273.79,260.043,297.804,250.953,336.515z M321.826,410.48
			c-0.027,0-0.054,0-0.08,0v-0.24c-31.281,0-56.64-25.359-56.64-56.64c0-31.281,25.359-56.64,56.64-56.64
			c31.281,0,56.64,25.359,56.64,56.64C378.474,384.925,353.151,410.391,321.826,410.48z"/>
	</g>
</g>
<g>
	<g>
		<path d="M358.465,321.76c-3.424-2.806-8.474-2.304-11.28,1.12v-0.08l-34.64,42.24l-18.24-24c-2.654-3.532-7.669-4.244-11.201-1.59
			c-3.528,2.651-4.243,7.658-1.599,11.19l24,32.56c1.477,1.97,3.778,3.15,6.24,3.2c2.393-0.016,4.653-1.102,6.16-2.96l41.68-50.4
			C362.391,329.616,361.889,324.566,358.465,321.76z"/>
	</g>
</g>
<g>
</g>
<g>
</g>
<g>
</g>
<g>
</g>
<g>
</g>
<g>
</g>
<g>
</g>
<g>
</g>
<g>
</g>
<g>
</g>
<g>
</g>
<g>
</g>
<g>
</g>
<g>
</g>
<g>
</g>
</svg>
