<?xml version="1.0" encoding="iso-8859-1"?>
<!-- Generator: Adobe Illustrator 19.0.0, SVG Export Plug-In . SVG Version: 6.00 Build 0)  -->
<svg version="1.1" id="file" xmlns="http://www.w3.org/2000/svg" xmlns:xlink="http://www.w3.org/1999/xlink" x="0px" y="0px"
	 viewBox="0 0 367.6 367.6" style="enable-background:new 0 0 367.6 367.6;" xml:space="preserve">
<g>
	<g>
		<g>
			<path d="M328.6,81.6c-0.4,0-0.4-0.4-0.8-0.8c-0.4-0.4-0.4-0.8-0.8-1.2L258.2,2.4c-0.4-0.4-1.2-0.8-1.6-1.2
				c-0.4,0-0.4-0.4-0.8-0.4c-0.8-0.4-2-0.8-3.2-0.8H83.8C59,0,38.6,20.4,38.6,45.2v277.2c0,24.8,20.4,45.2,45.2,45.2h200
				c24.8,0,45.2-20.4,45.2-45.2v-238C329,83.6,328.6,82.4,328.6,81.6z M260.2,27.2l44.4,50h-44.4V27.2z M313.8,322
				c0,16.8-13.2,30.4-30,30.4h-200c-16.8,0-30-13.6-30-30V44.8c0-16.8,13.6-30,30-30H245v69.6c0,4,3.2,7.6,7.6,7.6h61.2V322z"/>
			<path d="M183.4,146.4c-26.4,0-47.6,21.6-47.6,47.6c0,26.4,21.6,47.6,47.6,47.6c26.4,0,47.6-21.6,47.6-47.6
				C231.4,168,209.8,146.4,183.4,146.4z M183.4,226.8c-18,0-32.8-14.8-32.8-32.8s14.8-32.8,32.8-32.8s32.8,14.8,32.8,32.8
				C216.2,212.4,201.4,226.8,183.4,226.8z"/>
			<path d="M183.4,123.2c-39.2,0-71.2,32-71.2,71.2s32,71.2,71.2,71.2c17.2,0,32.8-6,45.2-16.4l38.4,37.6c1.6,1.6,3.2,2,5.2,2
				s4-0.8,5.2-2.4c2.8-2.8,2.8-7.6,0-10.8l-38-37.2c9.6-12,15.2-27.2,15.2-44C254.6,155.2,222.6,123.2,183.4,123.2z M183.4,250.4
				c-30.8,0-56-25.2-56-56s25.2-56,56-56c30.8,0,56,25.2,56,56S214.6,250.4,183.4,250.4z"/>
		</g>
	</g>
</g>
<g>
</g>
<g>
</g>
<g>
</g>
<g>
</g>
<g>
</g>
<g>
</g>
<g>
</g>
<g>
</g>
<g>
</g>
<g>
</g>
<g>
</g>
<g>
</g>
<g>
</g>
<g>
</g>
<g>
</g>
</svg>
