<svg id="pen" xmlns="http://www.w3.org/2000/svg" xmlns:xlink="http://www.w3.org/1999/xlink" x="0px" y="0px"
	 viewBox="0 0 391.76 391.76" style="enable-background:new 0 0 391.76 391.76;" xml:space="preserve">
<g>
	<g>
		<path d="M383.76,18.64H220.24c-0.664-0.084-1.336-0.084-2,0h-0.8c-0.828,0.376-1.585,0.89-2.24,1.52l-52.88,52.72l-32,32.48
			c-0.602,0.661-1.089,1.418-1.44,2.24v0.8c-0.084,0.664-0.084,1.336,0,2c0,0,0,0,0,0.48v259.76c-0.039,4.015,2.904,7.438,6.88,8
			h248c4.418,0,8-3.582,8-8v-344C391.76,22.222,388.178,18.64,383.76,18.64z M212.8,46v58.08h-57.92L212.8,46z M375.76,362.64h-232
			V120.08h77.04c4.418,0,8-3.582,8-8V34.64h147.04L375.76,362.64z"/>
	</g>
</g>
<g>
	<g>
		<path d="M99.68,87.04H81.52V68.96c0-4.418-3.582-8-8-8h-4.88V19.6c0-4.418-3.582-8-8-8h-40c-4.418,0-8,3.582-8,8v41.36H8
			c-4.418,0-8,3.582-8,8v205.92c0.017,0.959,0.207,1.908,0.56,2.8v0.48l32,65.44v28.56c0,4.418,3.582,8,8,8s8-3.582,8-8v-28.32
			l32-65.44v-0.48c0.282-0.771,0.444-1.58,0.48-2.4V103.04h10.64v48.72c0,4.418,3.582,8,8,8s8-3.582,8-8V95.04
			C107.68,90.622,104.098,87.04,99.68,87.04z M28.88,28h24v33.36h-24V28z M40.8,324l-19.92-40.88h40L40.8,324z M65.52,266.88H16
			V76.96h49.52V266.88z"/>
	</g>
</g>
<g>
	<g>
		<path d="M345.84,151.44h-172c-4.418,0-8,3.582-8,8s3.582,8,8,8h172c4.418,0,8-3.582,8-8S350.258,151.44,345.84,151.44z"/>
	</g>
</g>
<g>
	<g>
		<path d="M345.84,195.36h-172c-4.418-0.006-8.005,3.571-8.011,7.989s3.571,8.005,7.989,8.011c0.007,0,0.015,0,0.022,0h172
			c4.418,0,8-3.582,8-8S350.258,195.36,345.84,195.36z"/>
	</g>
</g>
<g>
	<g>
		<path d="M345.84,239.2h-172c-4.418,0-8,3.582-8,8s3.582,8,8,8h172c4.418,0,8-3.582,8-8S350.258,239.2,345.84,239.2z"/>
	</g>
</g>
<g>
	<g>
		<path d="M345.84,283.12h-172c-4.418,0-8,3.582-8,8s3.582,8,8,8h172c4.418,0,8-3.582,8-8S350.258,283.12,345.84,283.12z"/>
	</g>
</g>
<g>
</g>
<g>
</g>
<g>
</g>
<g>
</g>
<g>
</g>
<g>
</g>
<g>
</g>
<g>
</g>
<g>
</g>
<g>
</g>
<g>
</g>
<g>
</g>
<g>
</g>
<g>
</g>
<g>
</g>
</svg>
