<?xml version="1.0" encoding="iso-8859-1"?>
<!-- Generator: Adobe Illustrator 19.0.0, SVG Export Plug-In . SVG Version: 6.00 Build 0)  -->
<svg version="1.1" id="stats" xmlns="http://www.w3.org/2000/svg" xmlns:xlink="http://www.w3.org/1999/xlink" x="0px" y="0px"
	 viewBox="0 0 354.838 354.838" style="enable-background:new 0 0 354.838 354.838;" xml:space="preserve">
<g>
	<g>
		<g>
			<path style="fill:#231F20;" d="M348.4,17.419H6.8c-3.6,0-6.8,3.2-6.8,6.8v250c0,3.6,3.2,6.8,6.8,6.8h119.6v20.8h-10
				c-16,0-28.8,12.8-28.8,28.8c0,3.6,3.2,6.8,6.8,6.8c3.6,0,6.8-3.2,6.8-6.8c0-8.4,6.8-15.2,15.2-15.2h122c8.4,0,15.2,6.8,15.2,15.2
				c0,3.6,3.2,6.8,6.8,6.8c3.6,0,6.8-3.2,6.8-6.8c0-16-12.8-28.8-28.8-28.8h-10v-20.8H348c3.6,0,6.8-3.2,6.8-6.8v-250
				C355.2,20.219,352.4,17.419,348.4,17.419z M140,299.819v-18.8h74.8v18.8H140z M341.6,267.419h-328v-34h328V267.419z
				 M341.6,219.819h-328v-188.8h328V219.819z"/>
			<path style="fill:#231F20;" d="M156.4,257.819h42.4c3.6,0,6.8-3.2,6.8-6.8s-2.8-6.8-6.8-6.8h-42.4c-3.6,0-6.8,3.2-6.8,6.8
				S152.8,257.819,156.4,257.819z"/>
			<path style="fill:#231F20;" d="M69.2,196.619c14.4,0,26-11.6,26-26c0-3.6-0.8-7.2-2-10l34-26.8c4.4,3.2,9.6,5.2,15.6,5.2
				c6.8,0,13.2-2.8,18-7.2l18.4,10.8c-0.4,2-0.8,4-0.8,6.4c0,14.4,11.6,26,26,26c14.4,0,26-11.6,26-26c0-2.4-0.4-5.2-1.2-7.2
				l41.2-28.4c4.4,4,10.4,6.4,16.8,6.4c14.4,0,26-11.6,26-26c0-14.4-11.6-26-26-26c-14.4,0-26,11.6-26,26c0,2.8,0.4,5.6,1.6,8.4
				l-41.2,28c-4.8-4.4-10.8-7.2-17.6-7.2c-7.2,0-13.6,2.8-18.4,7.6l-18-10.8c0.8-2.4,1.2-4.8,1.2-7.2c0-14.4-11.6-26-26-26
				c-14.4,0-26,11.6-26,26c0,3.6,0.8,6.8,2,10l-34,26.8c-4.4-3.2-9.6-5.2-15.2-5.2c-14.4,0-26,11.6-26,26
				C43.2,185.019,54.8,196.619,69.2,196.619z M287.2,81.419c6.8,0,12.4,5.6,12.4,12.4s-5.6,12.4-12.4,12.4s-12.4-5.6-12.4-12.4
				S280.4,81.419,287.2,81.419z M193.2,143.019c2-4,6-6.4,10.8-6.4c6.8,0,12.4,5.6,12.4,12.4s-5.6,12.4-12.4,12.4
				s-12.4-5.6-12.4-12.4C191.6,147.019,192,145.019,193.2,143.019z M142.4,100.619c6.8,0,12.4,5.6,12.4,12.4c0,2.4-0.8,4.4-1.6,6.4
				c0,0,0,0,0,0.4c-2.4,3.2-6,5.6-10.4,5.6c-4,0-7.6-2-9.6-4.8c-1.6-2-2.4-4.4-2.4-7.2C130,106.219,135.6,100.619,142.4,100.619z
				 M69.2,158.219c4,0,7.2,2,9.6,4.8c1.6,2,2.8,4.8,2.8,7.6c0,6.8-5.6,12.4-12.4,12.4s-12.4-5.6-12.4-12.4
				C56.8,163.819,62.4,158.219,69.2,158.219z"/>
		</g>
	</g>
</g>
<g>
</g>
<g>
</g>
<g>
</g>
<g>
</g>
<g>
</g>
<g>
</g>
<g>
</g>
<g>
</g>
<g>
</g>
<g>
</g>
<g>
</g>
<g>
</g>
<g>
</g>
<g>
</g>
<g>
</g>
</svg>
