<?xml version="1.0" encoding="iso-8859-1"?>
<!-- Generator: Adobe Illustrator 19.0.0, SVG Export Plug-In . SVG Version: 6.00 Build 0)  -->
<svg version="1.1" id="tools1" xmlns="http://www.w3.org/2000/svg" xmlns:xlink="http://www.w3.org/1999/xlink" x="0px" y="0px"
	 viewBox="0 0 512 512" style="enable-background:new 0 0 512 512;" xml:space="preserve">
<g>
	<g>
		<path d="M506.944,81.321c-7.549-7.549-28.501-28.501-36.284-36.284c-2.929-2.929-7.677-2.93-10.608,0
			c-2.929,2.929-2.929,7.679,0,10.607l16.106,16.106L303.427,244.481l-57.704-57.704l21.821-21.82l15.215,15.215
			c2.93,2.929,7.679,2.929,10.608,0c2.929-2.929,2.929-7.678,0-10.607l-15.216-15.216l27.12-27.12l15.215,15.215
			c2.929,2.929,7.679,2.929,10.607,0c2.93-2.929,2.93-7.678,0.001-10.607l-15.215-15.216l27.12-27.12l15.215,15.215
			c2.93,2.929,7.679,2.929,10.608,0s2.929-7.679,0-10.607l-15.216-15.216l27.12-27.12l15.215,15.215
			c2.929,2.929,7.679,2.929,10.608,0c2.929-2.929,2.929-7.679,0-10.607l-15.216-15.215l25.505-25.505
			c0.553-0.553,1.184-0.669,1.615-0.669s1.063,0.116,1.615,0.669l15.233,15.232c2.927,2.929,7.677,2.93,10.607,0
			c2.929-2.929,2.929-7.679-0.001-10.607L430.674,5.055c-6.74-6.739-17.706-6.739-24.447,0L235.117,176.169l-93.29-93.29
			c-0.644-0.644-1.574-1.28-2.492-1.651c-2.07-0.887-79.829-34.217-82.333-35.29c-9.183-3.938-18.359,5.388-14.471,14.469
			c0.001,0,0.001,0.001,0.001,0.001c2.612,6.095,18.925,44.153,21.254,49.585l14.036,32.745c0.372,0.921,1.011,1.852,1.651,2.492
			l93.291,93.291L5.068,406.219c-6.757,6.757-6.756,17.69-0.001,24.446l76.267,76.266c6.754,6.756,17.69,6.758,24.447,0
			l167.698-167.696c4.938,4.938,140.653,140.653,145.603,145.603c4.265,4.264,9.951,6.612,16.01,6.612
			c6.059,0,11.745-2.348,16.01-6.612l30.333-30.333c8.827-8.828,8.827-23.191,0-32.019
			c-29.388-29.387-116.821-116.821-145.604-145.604l171.114-171.114C513.685,99.027,513.685,88.06,506.944,81.321z M73.208,93.9
			L60.242,63.646l30.254,12.968L73.208,93.9z M79.574,108.75l25.771-25.771l18.039,7.733c-30.896,30.896,0.666-0.667-36.078,36.076
			L79.574,108.75z M71.758,476.145l-56.084-56.087c-0.554-0.554-0.67-1.185-0.67-1.616c0-0.432,0.116-1.062,0.67-1.615
			l25.504-25.505l15.215,15.215c2.929,2.929,7.679,2.929,10.607,0c2.93-2.929,2.93-7.678,0.001-10.607l-15.215-15.216l27.12-27.12
			l15.215,15.215c2.93,2.929,7.679,2.929,10.608,0s2.929-7.679,0-10.607l-15.216-15.216l27.12-27.12l15.215,15.215
			c2.929,2.929,7.679,2.929,10.608,0s2.929-7.679,0-10.607l-15.216-15.215l27.12-27.121l15.215,15.215
			c2.93,2.929,7.679,2.929,10.608,0s2.929-7.679,0-10.607l-15.216-15.216l18.402-18.402l57.704,57.704L71.758,476.145z
			 M95.172,496.325c-0.553,0.553-1.184,0.669-1.615,0.669c-0.108,0-0.228-0.007-0.357-0.027c-0.385-0.059-0.844-0.228-1.259-0.643
			l-9.573-9.573L251.682,317.44l11.188,11.188L95.172,496.325z M470.826,433.093c2.978,2.979,2.978,7.826-0.001,10.805
			l-30.333,30.333c-1.431,1.431-3.349,2.219-5.401,2.219c-2.052,0-3.971-0.788-5.401-2.219l-27.11-27.111
			c5.011-5.011,36.125-36.125,41.137-41.137L470.826,433.093z M414.869,377.137l18.238,18.239
			c-5.012,5.012-36.125,36.125-41.138,41.137l-18.238-18.238C378.405,413.6,410.186,381.82,414.869,377.137z M404.261,366.528
			c-10.069,10.07-8.81,8.811-15.265,15.266l-96.541-96.542c-2.93-2.929-7.679-2.929-10.608,0c-2.929,2.929-2.929,7.679,0,10.607
			l96.542,96.542c-3.029,3.03-12.082,12.082-15.265,15.265c-7.985-7.984-255.418-255.417-267.74-267.739l15.265-15.265
			l146.447,146.447c2.929,2.928,7.678,2.93,10.608,0c2.929-2.929,2.929-7.679,0-10.607L121.257,114.054
			c11.111-11.111,8.025-8.025,15.265-15.265C148.607,110.874,383.672,345.939,404.261,366.528z M496.336,95.16L325.222,266.274
			l-11.187-11.187l172.731-172.73l9.571,9.571C497.229,92.819,497.229,94.268,496.336,95.16z"/>
	</g>
</g>
<g>
</g>
<g>
</g>
<g>
</g>
<g>
</g>
<g>
</g>
<g>
</g>
<g>
</g>
<g>
</g>
<g>
</g>
<g>
</g>
<g>
</g>
<g>
</g>
<g>
</g>
<g>
</g>
<g>
</g>
</svg>
