<svg id="usa" xmlns="http://www.w3.org/2000/svg" xmlns:xlink="http://www.w3.org/1999/xlink" x="0px" y="0px"
	 viewBox="0 0 512 512" style="enable-background:new 0 0 512 512;" xml:space="preserve">
<g>
	<g>
		<path d="M375.466,34.133c-42.828,0-80.038,20.148-107.609,58.264c-4.563,6.308-8.498,12.617-11.857,18.608
			c-3.358-5.992-7.293-12.299-11.857-18.608c-27.572-38.116-64.783-58.264-107.611-58.264C55.781,34.133,0,105.324,0,187.733
			c0,129.605,131.249,228.963,248.284,288.289c4.851,2.459,10.582,2.459,15.434,0C380.731,416.706,512,317.28,512,187.733
			C512,104.651,455.636,34.133,375.466,34.133z M375.466,68.266c29.8,0,55.854,13.399,74.227,35.562H302.317
			C318.538,84.885,342.229,68.266,375.466,68.266z M272.576,157.723c0.602-1.982,3.183-10.036,8.265-20.57H468.91
			c3.919,10.317,6.638,21.511,7.983,33.348H272.576V157.723z M34.134,187.733c0-68.107,44.021-119.467,102.399-119.467
			c31.575,0,58.284,14.587,79.386,43.357c14.709,20.054,21.877,40.619,23.43,45.519v80.033H42.171
			C36.831,220.665,34.134,204.153,34.134,187.733z M256,441.62c-23.49-12.189-45.238-24.79-65.202-37.771h130.403
			C301.238,416.828,279.49,429.431,256,441.62z M367.498,370.523H144.502c-13.583-10.893-25.993-22.022-37.207-33.348h297.41
			C393.492,348.501,381.081,359.63,367.498,370.523z M433.802,303.849H78.198c-8.41-11.079-15.627-22.21-21.641-33.348
			c17.387,0,381.282,0,398.885,0C449.429,281.639,442.211,292.77,433.802,303.849z M272.576,237.175v-33.348h204.428
			c-1.179,11.093-3.577,22.224-7.175,33.348H272.576z"/>
	</g>
</g>
<g>
	<g>
		<circle cx="178.119" cy="126.158" r="16.668"/>
	</g>
</g>
<g>
	<g>
		<circle cx="111.445" cy="126.158" r="16.668"/>
	</g>
</g>
<g>
	<g>
		<circle cx="128.114" cy="192.832" r="16.668"/>
	</g>
</g>
<g>
	<g>
		<circle cx="194.788" cy="192.832" r="16.668"/>
	</g>
</g>
<g>
</g>
<g>
</g>
<g>
</g>
<g>
</g>
<g>
</g>
<g>
</g>
<g>
</g>
<g>
</g>
<g>
</g>
<g>
</g>
<g>
</g>
<g>
</g>
<g>
</g>
<g>
</g>
<g>
</g>
</svg>
